<svg width="2394" height="1338" viewBox="0 0 2394 1338" fill="none" xmlns="http://www.w3.org/2000/svg">
<path d="M466 446.575L0 824.075V1337.08C378.5 970.075 537.5 753.575 939 401.075C1023.09 327.245 938 317.575 1173 317.575C1408 317.575 1551.72 199.334 1591.5 174.575C1631.28 149.816 1712.93 103.44 1827 84.0754C1941.07 64.7112 2142.5 21.0755 2203.5 26.5753C2264.5 32.0752 2503.5 -15.9246 2334 5.5754C2164.5 27.0754 1666 38.5753 1504 133.075C1342 227.576 1125.5 206.075 962 184.575C798.5 163.075 698 267.575 466 446.575Z" fill="#A6F829"/>
</svg>
